# xmcd CD database file
#
# Track frame offsets:
#	150
#	19463
#	38244
#	61320
#	92487
#	112820
#	137868
#	172706
#	201195
#	233516
#	256226
#
# Disc length: 3697 seconds
#
# Revision: 0
# Processed by: cddbd v1.5.2PL0 Copyright (c) Steve Scherf et al.
# Submitted via: CDex 1.70beta2
#
DISCID=860e6f0b
DTITLE=Camilleri, Andrea - Die Spur des Fuchses
DYEAR=2010
DGENRE=Hoerbuch
TTITLE0=12 Die Spur des Fuchses
TTITLE1=13 Die Spur des Fuchses
TTITLE2=14 Die Spur des Fuchses
TTITLE3=15 Die Spur des Fuchses
TTITLE4=16 Die Spur des Fuchses
TTITLE5=17 Die Spur des Fuchses
TTITLE6=18 Die Spur des Fuchses
TTITLE7=19 Die Spur des Fuchses
TTITLE8=20 Die Spur des Fuchses
TTITLE9=21 Die Spur des Fuchses
TTITLE10=22 Die Spur des Fuchses
EXTD=YEAR: 2010
EXTT0=
EXTT1=
EXTT2=
EXTT3=
EXTT4=
EXTT5=
EXTT6=
EXTT7=
EXTT8=
EXTT9=
EXTT10=
PLAYORDER=
